# xmcd
#
# Track frame offsets:
#	150
#	13383
#	26284
#	37693
#	53315
#	63865
#	77516
#	96070
#	107612
#	123601
#	139831
#
# Disc length: 2038 seconds
# Revision: 0
# Processed by: cddbd v1.5.2PL0 Copyright (c) Steve Scherf et al.
# Submitted via: dBpowerAMP V12.0
#
DISCID=7b07f40b
DTITLE=The High 48s - Up North
DYEAR=2010
DGENRE=Bluegrass
TTITLE0=Up North
TTITLE1=Easy to Get Lost
TTITLE2=Darrington
TTITLE3=I've Endured
TTITLE4=Dirty Old Town
TTITLE5=Nightshade Waltz
TTITLE6=Sad Lonesome Eyes
TTITLE7=Paul and Silas
TTITLE8=The Cliffs of Red Wing
TTITLE9=Little Odessa
TTITLE10=Shoes
EXTD=
EXTT0=
EXTT1=
EXTT2=
EXTT3=
EXTT4=
EXTT5=
EXTT6=
EXTT7=
EXTT8=
EXTT9=
EXTT10=
PLAYORDER=
